<?xml version="1.0" encoding="UTF-8"?>
<svg xmlns="http://www.w3.org/2000/svg" version="1.1" viewBox="0 0 500 500">
  <!-- Generator: Adobe Illustrator 29.1.0, SVG Export Plug-In . SVG Version: 2.1.0 Build 142)  -->
  <defs>
    <style>
      .st0 {
        font-size: 192.82px;
      }

      .st0, .st1, .st2, .st3, .st4, .st5 {
        fill: #172554;
      }

      .st0, .st1, .st3, .st4, .st5 {
        font-family: MyriadPro-Regular, 'Myriad Pro';
      }

      .st6 {
        fill: #1e3a8a;
      }

      .st1 {
        font-size: 132.6px;
      }

      .st7 {
        fill: #2563eb;
      }

      .st8 {
        fill: #36a9fc;
      }

      .st9 {
        fill: none;
        stroke: #1e3a8a;
        stroke-miterlimit: 10;
        stroke-width: 17px;
      }

      .st10 {
        fill: #1e40af;
      }

      .st11 {
        display: none;
      }

      .st3 {
        font-size: 182.32px;
      }

      .st4 {
        font-size: 198.89px;
      }

      .st5 {
        font-size: 65.98px;
      }
    </style>
  </defs>
  <g id="OBJECTS">
    <g class="st11">
      <path class="st6" d="M217.56,412.06c2.11,16.5.32,34.1-8.46,48.56-7.56,12.45-19.93,21.54-34.12,24.9-10.35,2.45-26.81,1.89-30.02-10.68-1.35-5.3-.07-10.9,3.47-14.99,4.24-4.91,10.54-7.48,16.94-8.45,4.29-.65,8.71-.44,13.03-.29,4.61.16,9.21.49,13.8.95,8.24.82,16.42,2.11,24.61,3.27,19.52,2.76,39.22,4.52,58.95,3.79,18.46-.68,37.18-3.33,54.81-8.96,12.06-3.85,23.73-9.34,33.9-16.93,10.15-7.58,18.78-17.16,24.5-28.52,6.37-12.66,8.97-26.85,8.57-40.96-.11-3.99-.46-7.97-.99-11.92-.18-1.34-1.02-2.5-2.5-2.5-1.21,0-2.68,1.15-2.5,2.5,1.97,14.74,1.26,29.87-4.04,43.89-4.44,11.73-12.08,21.94-21.65,30.08-9.51,8.08-21.06,14.13-32.83,18.28-16.96,5.98-35.1,8.89-53.01,9.86-20.07,1.1-40.2-.42-60.08-3.17-8.49-1.18-16.95-2.53-25.47-3.46-4.58-.5-9.17-.87-13.77-1.09-4.62-.22-9.32-.46-13.93.02-7.31.76-14.58,3.21-20.07,8.24-4.67,4.28-7.5,10.42-7.26,16.8.26,6.86,3.6,13,9.55,16.52,5.63,3.33,12.59,4.26,19.03,3.84,14.97-.98,29.41-8.77,39.19-20.01,11.15-12.82,16.25-30.07,16.25-46.89,0-4.24-.35-8.47-.89-12.67-.17-1.34-1.03-2.5-2.5-2.5-1.22,0-2.67,1.15-2.5,2.5h0Z"/>
    </g>
  </g>
  <g id="SIGNOS">
    <path class="st9" d="M224.21,90.83c-18.86-17.33-44-27.93-71.63-27.97-58.61-.08-106.18,47.37-106.26,105.98-.2,149.93,203.37,229.45,203.37,229.45,0,0,203.79-84.44,203.99-228.91.08-58.61-47.37-106.18-105.98-106.26-26.35-.04-50.47,9.54-69.05,25.42"/>
    <path class="st2" d="M293.74,75.96c-4.28-5.22-12.01-5.98-17.23-1.71l-17.3,14.17c-5.22,4.28-5.99,12.01-1.71,17.23,2.07,2.53,5.01,4.1,8.26,4.42.41.04.82.06,1.23.06,2.82,0,5.53-.97,7.74-2.78l17.3-14.17c5.22-4.28,5.99-12.01,1.71-17.23Z"/>
    <path class="st2" d="M240.61,88.43l-17.3-14.17c-5.23-4.28-12.95-3.51-17.23,1.71-2.07,2.53-3.04,5.71-2.71,8.97.32,3.25,1.89,6.19,4.42,8.26l17.3,14.17c2.21,1.81,4.92,2.78,7.74,2.78.41,0,.82-.02,1.23-.06,3.25-.32,6.19-1.9,8.26-4.43,2.07-2.53,3.04-5.71,2.71-8.97-.32-3.26-1.89-6.19-4.42-8.26Z"/>
    <g>
      <circle class="st2" cx="250" cy="418.82" r="29.57" transform="translate(-64.42 45.93) rotate(-9.3)"/>
      <path class="st6" d="M260.75,418.82c0,5.94-4.81,10.75-10.75,10.75s-10.75-4.81-10.75-10.75,4.81-10.75,10.75-10.75,10.75,4.81,10.75,10.75Z"/>
    </g>
    <path class="st2" d="M395.44,310.92l-9.98-11.27c-1.86-2.1-5.04-2.29-7.16-.46-52.65,45.47-112,73.85-128.89,81.46-17.11-7.33-77.52-34.97-130.41-80.98-2.11-1.84-5.3-1.66-7.16.43l-10.03,11.23c-1.89,2.11-1.7,5.38.44,7.24,65.43,57.02,139.52,86.33,142.7,87.57l4.73,1.85,4.7-1.94c3.11-1.29,75.61-31.67,140.6-87.88,2.14-1.85,2.34-5.12.47-7.24Z"/>
    <g>
      <text class="st3" transform="translate(250.91 323)"><tspan x="0" y="0">=</tspan></text>
      <text class="st4" transform="translate(134.9 227.43) scale(1.74 1)"><tspan x="0" y="0">-</tspan></text>
      <text class="st0" transform="translate(248.18 224.58)"><tspan x="0" y="0">+</tspan></text>
      <text class="st1" transform="translate(137.12 302.43)"><tspan x="0" y="0">%</tspan></text>
    </g>
  </g>
  <g id="PEDICALC" class="st11">
    <text class="st5" transform="translate(113.49 105.99)"><tspan x="0" y="0">PEDICALC</tspan></text>
  </g>
  <g id="PRUEBA_COLORES" class="st11">
    <ellipse class="st8" cx="-267.33" cy="373.92" rx="36.78" ry="34.73"/>
    <ellipse class="st10" cx="-98.62" cy="378.85" rx="36.78" ry="34.73"/>
    <ellipse class="st6" cx="-182.98" cy="454.76" rx="36.78" ry="34.73"/>
    <ellipse class="st2" cx="-98.62" cy="454.76" rx="36.78" ry="34.73"/>
    <ellipse class="st6" cx="-270.83" cy="451.84" rx="36.78" ry="34.73"/>
    <ellipse class="st7" cx="-182.98" cy="373.92" rx="36.78" ry="34.73"/>
  </g>
</svg>