<?xml version="1.0" encoding="UTF-8"?>
<svg xmlns="http://www.w3.org/2000/svg" version="1.1" viewBox="0 0 500 500">
  <!-- Generator: Adobe Illustrator 29.1.0, SVG Export Plug-In . SVG Version: 2.1.0 Build 142)  -->
  <defs>
    <style>
      .st0 {
        fill: #1e3a8a;
      }

      .st1 {
        stroke-width: 3px;
      }

      .st1, .st2 {
        fill: none;
        stroke: #1e3a8a;
        stroke-miterlimit: 10;
      }

      .st3 {
        font-size: 157.43px;
      }

      .st3, .st4, .st5, .st6 {
        fill: #172554;
      }

      .st3, .st4, .st6 {
        font-family: MyriadPro-Regular, 'Myriad Pro';
      }

      .st4 {
        font-size: 114.49px;
      }

      .st7 {
        fill: #2563eb;
      }

      .st8 {
        fill: #36a9fc;
      }

      .st9 {
        fill: #1e40af;
      }

      .st6 {
        font-size: 171.74px;
      }

      .st10 {
        display: none;
      }

      .st2 {
        stroke-width: 5px;
      }

      .st11 {
        fill: #f7f7f7;
      }
    </style>
  </defs>
  <g id="SIGNOS">
    <g>
      <g>
        <path class="st2" d="M197.82,66.61c-17.71-16.28-41.34-26.24-67.29-26.27-55.06-.07-99.75,44.5-99.83,99.56-.19,140.85,191.05,215.56,191.05,215.56,0,0,191.45-79.33,191.63-215.04.07-55.06-44.5-99.75-99.56-99.83-24.76-.03-47.42,8.96-64.87,23.88"/>
        <path class="st5" d="M257.53,56.71c-2.71-3.31-7.61-3.79-10.92-1.08l-10.96,8.98c-3.31,2.71-3.8,7.61-1.08,10.92,1.31,1.6,3.17,2.6,5.23,2.8.26.03.52.04.78.04,1.79,0,3.5-.61,4.9-1.76l10.96-8.98c3.31-2.71,3.8-7.61,1.08-10.92Z"/>
        <path class="st5" d="M206.33,64.61l-10.96-8.98c-3.31-2.71-8.21-2.22-10.92,1.08-1.31,1.6-1.92,3.62-1.72,5.68.2,2.06,1.2,3.92,2.8,5.23l10.96,8.98c1.4,1.15,3.12,1.76,4.9,1.76.26,0,.52-.01.78-.04,2.06-.2,3.92-1.2,5.23-2.8,1.31-1.6,1.92-3.62,1.72-5.68-.2-2.06-1.2-3.92-2.8-5.23Z"/>
        <circle class="st11" cx="441.53" cy="257.82" r="15.04" transform="translate(-61.35 165.46) rotate(-19.87)"/>
        <path class="st0" d="M216.77,359.31c2.76,21.58.38,44.62-11.11,63.53-9.93,16.35-26.19,28.32-44.82,32.73-13.77,3.26-35.66,2.47-39.97-14.41-1.81-7.11-.1-14.66,4.71-20.22,5.65-6.53,13.99-9.89,22.37-11.19,5.65-.87,11.45-.61,17.14-.4,5.99.21,11.98.63,17.94,1.23,10.78,1.08,21.48,2.76,32.21,4.27,25.32,3.58,50.88,5.85,76.47,4.91,23.94-.88,48.21-4.32,71.08-11.63,15.62-4.99,30.73-12.1,43.91-21.94,13.1-9.78,24.22-22.17,31.59-36.82,8.23-16.35,11.56-34.67,11.05-52.89-.15-5.19-.6-10.36-1.29-15.5-.18-1.34-1.02-2.5-2.5-2.5-1.21,0-2.68,1.15-2.5,2.5,2.57,19.23,1.63,39-5.28,57.27-5.82,15.39-15.85,28.83-28.35,39.45-12.58,10.69-27.51,18.49-43.03,23.96-22.11,7.8-45.79,11.58-69.14,12.85-26.17,1.43-52.41-.56-78.33-4.15-10.97-1.52-21.91-3.27-32.92-4.47-5.95-.65-11.93-1.13-17.91-1.41s-12.12-.6-18.12.02c-9.3.97-18.58,4.1-25.57,10.5-5.94,5.44-9.53,13.21-9.22,21.32.32,8.66,4.54,16.39,12.05,20.84s16.13,5.43,24.37,4.89c19.27-1.27,37.85-11.34,50.43-25.8,14.37-16.52,20.91-38.79,20.91-60.45,0-5.51-.46-11.01-1.16-16.48-.17-1.34-1.03-2.5-2.5-2.5-1.22,0-2.67,1.15-2.5,2.5h0Z"/>
        <circle class="st5" cx="441.53" cy="257.82" r="27.78" transform="translate(112.32 649.03) rotate(-80.2)"/>
        <path class="st0" d="M451.63,257.82c0,5.58-4.52,10.1-10.1,10.1s-10.1-4.52-10.1-10.1,4.52-10.1,10.1-10.1,10.1,4.52,10.1,10.1Z"/>
        <path class="st1" d="M130.71,304.6s101.06,25.41,178.49,0"/>
        <path class="st5" d="M341.54,286.79l-8.21-9.27c-1.53-1.73-4.15-1.88-5.89-.37-43.32,37.41-92.15,60.76-106.05,67.02-14.08-6.03-63.78-28.77-107.29-66.62-1.74-1.51-4.36-1.37-5.89.35l-8.25,9.24c-1.55,1.74-1.4,4.43.36,5.96,53.84,46.91,114.79,71.02,117.41,72.05l3.89,1.52,3.86-1.6c2.56-1.06,62.21-26.06,115.68-72.31,1.76-1.52,1.93-4.21.38-5.96Z"/>
      </g>
      <g>
        <text class="st3" transform="translate(235.77 267.92)"><tspan x="0" y="0">=</tspan></text>
        <text class="st6" transform="translate(111 175.91) scale(1.74 1)"><tspan x="0" y="0">-</tspan></text>
        <text class="st3" transform="translate(233.08 172)"><tspan x="0" y="0">+</tspan></text>
        <text class="st4" transform="translate(111 251.59)"><tspan x="0" y="0">%</tspan></text>
      </g>
    </g>
  </g>
  <g id="PRUEBA_COLORES" class="st10">
    <ellipse class="st8" cx="-267.33" cy="373.92" rx="36.78" ry="34.73"/>
    <ellipse class="st9" cx="-98.62" cy="378.85" rx="36.78" ry="34.73"/>
    <ellipse class="st0" cx="-182.98" cy="454.76" rx="36.78" ry="34.73"/>
    <ellipse class="st5" cx="-98.62" cy="454.76" rx="36.78" ry="34.73"/>
    <ellipse class="st0" cx="-270.83" cy="451.84" rx="36.78" ry="34.73"/>
    <ellipse class="st7" cx="-182.98" cy="373.92" rx="36.78" ry="34.73"/>
  </g>
</svg>